<?xml version="1.0" encoding="UTF-8"?>
<svg xmlns="http://www.w3.org/2000/svg" version="1.1" viewBox="0 0 1024 1024">
  <defs>
    <style>
      .cls-1 {
        fill: #fff;
      }

      .cls-2 {
        fill: #009444;
      }
    </style>
  </defs>
  <!-- Generator: Adobe Illustrator 28.7.1, SVG Export Plug-In . SVG Version: 1.2.0 Build 142)  -->
  <g>
    <g id="Layer_1">
      <g>
        <rect class="cls-1" x="0" width="1024" height="1024"/>
        <g>
          <path class="cls-2" d="M481.59,736.96c-75.42-28.53-131.17-99.2-136.43-184.76-5.46-88.84,43.19-199.15,119.21-234.96-34.1,14.05-64.74,35.96-89.66,64.68-42.16,48.58-62.96,111.78-58,175.91,4.83,62.5,33.26,119.64,80.33,161.26,22.25,19.67,47.44,34.78,74.42,44.94,9.79,3.69,20.13-3.99,19.49-14.43-.35-5.69-4.02-10.62-9.35-12.64Z"/>
          <path class="cls-2" d="M347.41,683.21l-61.05,51.63c-11.86-6.19-26.73-5.42-38.08,3.23l-80.27,61.18c-15.64,11.92-18.65,34.25-6.74,49.89l14.36,18.84c11.92,15.64,34.25,18.65,49.89,6.74l80.27-61.18c12.71-9.69,17.08-26.27,11.87-40.53l61.62-52.11-31.87-37.68Z"/>
          <path class="cls-2" d="M482.13,191.22c85.16,53.67,91.86,133.91,89.56,172.1,5.43,6.3,9.85,13.6,13.05,21.73h.15c3.62-8.93,8.89-17.03,15.43-23.92-1.36-10.85-2.85-20.79-2.85-20.79,26.84-50.97,63.89-52.21,63.89-52.21-30.93,7.38-52.82,45.46-52.82,45.46,62.86,26,76.16-61.23,76.16-61.23-97.06-9-81.49,46.29-81.49,46.29-5.53,5.31-14.94,19.25-14.94,19.25l4.16-18.37c-19.66-96.11-110.3-128.31-110.3-128.31Z"/>
          <path class="cls-2" d="M555.57,291.88s-74.12,2.87-89.68-43.82c-15.56-46.68-20.48-106.06-20.48-106.06,0,0,2.05,70.85,10.24,103.61,8.19,32.76,44.64,55.69,99.92,46.28Z"/>
          <path class="cls-2" d="M506.02,178.72c44.77,10.1,69.86,39.23,75.62,80.54,0,0,5.46-50.51-41.5-72.89-46.96-22.39-62.79-13.65-83.27-35.49,0,0,4.37,17.75,49.14,27.85Z"/>
          <path class="cls-2" d="M532.11,534.52c21.22,4.33,39.75,16.16,52.69,32.59,1.66,2.12,3.24,4.31,4.7,6.59,23.12-1.88,42.27-17.86,48.83-39.33,0,0,0-.02.02-.02t.02-.03v-.05c1.56-5.14,2.41-10.61,2.41-16.28s-.81-10.9-2.31-15.96h-.02c-.19-.03-.37-.07-.54-.12-21.42-4.23-40.11-16.11-53.13-32.64-1.77-2.24-3.41-4.57-4.97-6.96-22.12,1.97-40.53,16.86-47.66,37.07-.67,2.04-.05.17-.85,2.61-1.51,5.06-2.33,10.44-2.33,15.99s.87,11.22,2.44,16.41c.24.03.46.07.7.12Z"/>
          <path class="cls-2" d="M514.88,461.68c12.92-16.02,31.23-27.55,52.14-31.78.24-.05.46-.1.7-.14,1.51-5.06,2.33-10.44,2.33-15.99,0-6.08-.97-11.93-2.77-17.42v-.02c-7.32-22.34-28.33-38.48-53.13-38.48-30.88,0-55.91,25.04-55.91,55.91,0,5.08.68,10.01,1.95,14.68,22.1,4.02,41.4,16.18,54.69,33.22Z"/>
          <path class="cls-2" d="M602.28,396.35c-1.8,5.48-2.77,11.34-2.77,17.43,0,5.55.82,10.9,2.31,15.96.15.49.31.98.46,1.48,6.81,20.76,25.44,36.16,47.93,38.23,1.71.17,3.46.25,5.21.25s3.38-.07,5.04-.24c23.47-2.09,42.77-18.71,48.87-40.79,1.31-4.74,2-9.73,2-14.89,0-30.88-25.04-55.91-55.91-55.91-24.8,0-45.81,16.14-53.15,38.48Z"/>
          <path class="cls-2" d="M567.29,639.95c-.05-.19-.08-.37-.12-.56.1-.03.22-.05.32-.05,1.65-5.3,2.55-10.91,2.55-16.75s-.87-11.22-2.44-16.41c-.15-.02-.32-.05-.48-.08.05-.29.1-.58.17-.87-6.86-21.03-25.83-36.56-48.66-38.36-1.48-.12-2.97-.19-4.48-.19s-3.11.07-4.63.2c-22.71,1.85-41.59,17.3-48.48,38.21-1.82,5.5-2.8,11.39-2.8,17.5,0,29.26,22.51,53.3,51.14,55.71,1.58.14,3.16.2,4.77.2,24.82,0,45.85-16.16,53.15-38.55ZM501.15,621.16c-8.11,0-14.7-6.59-14.7-14.7s6.59-14.72,14.7-14.72,14.72,6.59,14.72,14.72-6.59,14.7-14.72,14.7Z"/>
          <path class="cls-2" d="M448.49,461.04c-1.48-.12-2.97-.19-4.48-.19s-3.11.07-4.63.2c-15.94,1.29-29.96,9.3-39.28,21.18-.44.56-.87,1.12-1.27,1.68-.76,1.04-1.48,2.1-2.16,3.19-.31.46-.58.93-.85,1.39-.29.48-.54.93-.81,1.41-.61,1.14-1.21,2.29-1.75,3.48-.03.07-.07.14-.1.2-.54,1.21-1.05,2.43-1.53,3.68-.07.19-.14.39-.2.58-.02.07-.05.12-.07.19-.15.41-.32.81-.46,1.22-.05.15-.08.29-.12.44-.22.65-.41,1.32-.59,1.99-.02.08-.05.15-.07.24-.39,1.43-.75,2.85-1.02,4.33-.02.05-.03.1-.03.15-.15.81-.29,1.65-.41,2.5-.12.81-.22,1.65-.29,2.5-.02.07-.03.14-.02.2-.08.76-.14,1.54-.17,2.33-.02.1-.02.2-.02.31-.05.83-.07,1.68-.07,2.53,0,1.83.08,3.63.25,5.41.08.9.19,1.78.32,2.66.12.87.27,1.75.44,2.61.02.05.02.08.02.12.31,1.51.66,3.02,1.07,4.48,6.23,22.12,25.72,38.65,49.31,40.52.02-.03.03-.05.05-.08,13.04-19.32,33.35-33.32,56.98-38.04.17-.03.36-.07.53-.1h.03c.08-.27.19-.54.25-.83.42-1.31.8-2.66,1.09-4.02.17-.7.31-1.37.44-2.07.29-1.37.49-2.77.64-4.19.08-.7.15-1.41.2-2.14.05-.65.08-1.31.12-1.97.03-.68.05-1.37.05-2.07v-.29c0-.61-.02-1.21-.03-1.82-.02-.56-.03-1.12-.07-1.66-.02-.1-.02-.19-.02-.27-.05-.61-.1-1.21-.17-1.8-.05-.56-.12-1.1-.19-1.65,0-.14-.02-.25-.05-.37-.07-.56-.15-1.1-.25-1.66-.08-.58-.2-1.17-.32-1.75.02-.03.02-.05,0-.08-.36-1.82-.81-3.6-1.34-5.35h-.05c-.07-.31-.17-.59-.27-.88,0-.02.02-.05.02-.07-6.86-21.03-25.83-36.56-48.67-38.36ZM431.01,515.34c-8.11,0-14.7-6.59-14.7-14.7s6.59-14.72,14.7-14.72,14.72,6.59,14.72,14.72-6.59,14.7-14.72,14.7Z"/>
          <path class="cls-2" d="M731.72,461.19c-12.85,20.62-33.85,35.7-58.46,40.67-.22.05-.44.08-.66.12-1.31,4.74-2,9.73-2,14.87,0,5.99.93,11.75,2.68,17.16v.02c.07.17.12.34.17.51,7.4,22.2,28.36,38.23,53.06,38.23,1.21,0,2.41-.03,3.6-.12,29.2-1.85,52.3-26.12,52.3-55.79s-22.25-53.03-50.68-55.66Z"/>
          <path class="cls-2" d="M708.48,604.9c-21.05-4.31-39.45-15.99-52.35-32.22-13.04,16.92-31.96,29.11-53.67,33.44-.15.03-.32.07-.47.08-1.6,5.18-2.44,10.68-2.44,16.38s.92,11.54,2.6,16.87c.08,0,.15.02.24.05-.02.15-.03.29-.08.42v.02c7.32,22.39,28.35,38.55,53.16,38.55,1.41,0,2.8-.05,4.18-.15,28.92-2.14,51.72-26.29,51.72-55.76,0-6.18-1-12.14-2.85-17.69h-.02Z"/>
          <path class="cls-2" d="M584.79,678.05c-13.12,16.69-32.03,28.64-53.67,32.78-1.65,5.28-2.55,10.91-2.55,16.74,0,30.88,25.04,55.91,55.91,55.91s55.91-25.04,55.91-55.91c0-5.87-.9-11.54-2.6-16.87-21.37-4.26-40.01-16.14-53.01-32.64Z"/>
        </g>
      </g>
    </g>
  </g>
</svg>