<?xml version="1.0" encoding="UTF-8"?>
<svg xmlns="http://www.w3.org/2000/svg" version="1.1" viewBox="0 0 512 512">
  <defs>
    <style>
      .cls-1 {
        fill: #009444;
      }
    </style>
  </defs>
  <!-- Generator: Adobe Illustrator 28.7.1, SVG Export Plug-In . SVG Version: 1.2.0 Build 142)  -->
  <g>
    <g id="Layer_1">
      <g>
        <path class="cls-1" d="M240.79,368.48c-37.71-14.26-65.59-49.6-68.22-92.38-2.73-44.42,21.6-99.58,59.6-117.48-17.05,7.03-32.37,17.98-44.83,32.34-21.08,24.29-31.48,55.89-29,87.96,2.41,31.25,16.63,59.82,40.17,80.63,11.13,9.84,23.72,17.39,37.21,22.47,4.9,1.84,10.07-1.99,9.74-7.22-.17-2.84-2.01-5.31-4.68-6.32Z"/>
        <path class="cls-1" d="M173.7,341.61l-30.52,25.81c-5.93-3.1-13.37-2.71-19.04,1.62l-40.14,30.59c-7.82,5.96-9.33,17.13-3.37,24.95l7.18,9.42c5.96,7.82,17.13,9.33,24.95,3.37l40.14-30.59c6.36-4.84,8.54-13.13,5.93-20.27l30.81-26.05-15.93-18.84Z"/>
        <path class="cls-1" d="M241.07,95.61c42.58,26.84,45.93,66.95,44.78,86.05,2.72,3.15,4.92,6.8,6.53,10.86h.08c1.81-4.46,4.45-8.51,7.71-11.96-.68-5.42-1.43-10.4-1.43-10.4,13.42-25.49,31.95-26.11,31.95-26.11-15.46,3.69-26.41,22.73-26.41,22.73,31.43,13,38.08-30.61,38.08-30.61-48.53-4.5-40.75,23.14-40.75,23.14-2.77,2.66-7.47,9.62-7.47,9.62l2.08-9.18c-9.83-48.05-55.15-64.15-55.15-64.15Z"/>
        <path class="cls-1" d="M277.79,145.94s-37.06,1.43-44.84-21.91c-7.78-23.34-10.24-53.03-10.24-53.03,0,0,1.02,35.42,5.12,51.8,4.1,16.38,22.32,27.85,49.96,23.14Z"/>
        <path class="cls-1" d="M253.01,89.36c22.39,5.05,34.93,19.61,37.81,40.27,0,0,2.73-25.25-20.75-36.45-23.48-11.19-31.4-6.83-41.63-17.75,0,0,2.18,8.87,24.57,13.92Z"/>
        <path class="cls-1" d="M266.05,267.26c10.61,2.16,19.88,8.08,26.34,16.3.83,1.06,1.62,2.16,2.35,3.29,11.56-.94,21.13-8.93,24.42-19.66,0,0,0,0,0,0t0-.02v-.02h0c.78-2.58,1.21-5.31,1.21-8.15s-.41-5.45-1.15-7.98h0c-.09-.02-.19-.03-.27-.06-10.71-2.11-20.06-8.05-26.56-16.32-.88-1.12-1.71-2.28-2.49-3.48-11.06.98-20.27,8.43-23.83,18.54-.33,1.02-.03.08-.42,1.31-.76,2.53-1.16,5.22-1.16,7.99s.43,5.61,1.22,8.21c.12.02.23.03.35.06Z"/>
        <path class="cls-1" d="M257.44,230.84c6.46-8.01,15.62-13.77,26.07-15.89.12-.03.23-.05.35-.07.76-2.53,1.16-5.22,1.16-7.99,0-3.04-.48-5.97-1.38-8.71h0c-3.66-11.18-14.16-19.25-26.56-19.25-15.44,0-27.96,12.52-27.96,27.96,0,2.54.34,5.01.98,7.34,11.05,2.01,20.7,8.09,27.35,16.61Z"/>
        <path class="cls-1" d="M301.14,198.18c-.9,2.74-1.38,5.67-1.38,8.72,0,2.78.41,5.45,1.15,7.98.08.25.15.49.23.74,3.4,10.38,12.72,18.08,23.97,19.11.86.08,1.73.13,2.61.13s1.69-.03,2.52-.12c11.74-1.04,21.39-9.35,24.43-20.39.65-2.37,1-4.86,1-7.44,0-15.44-12.52-27.96-27.96-27.96-12.4,0-22.91,8.07-26.57,19.24Z"/>
        <path class="cls-1" d="M283.65,319.97c-.03-.09-.04-.19-.06-.28.05-.02.11-.03.16-.03.82-2.65,1.27-5.46,1.27-8.38s-.43-5.61-1.22-8.21c-.08,0-.16-.03-.24-.04.03-.14.05-.29.08-.43-3.43-10.52-12.92-18.28-24.33-19.18-.74-.06-1.49-.09-2.24-.09s-1.55.03-2.32.1c-11.36.93-20.79,8.65-24.24,19.1-.91,2.75-1.4,5.69-1.4,8.75,0,14.63,11.25,26.65,25.57,27.85.79.07,1.58.1,2.38.1,12.41,0,22.92-8.08,26.57-19.27ZM250.57,310.58c-4.06,0-7.35-3.29-7.35-7.35s3.29-7.36,7.35-7.36,7.36,3.29,7.36,7.36-3.29,7.35-7.36,7.35Z"/>
        <path class="cls-1" d="M224.25,230.52c-.74-.06-1.49-.09-2.24-.09s-1.55.03-2.32.1c-7.97.65-14.98,4.65-19.64,10.59-.22.28-.43.56-.64.84-.38.52-.74,1.05-1.08,1.6-.15.23-.29.47-.42.7-.14.24-.27.47-.41.7-.31.57-.6,1.15-.87,1.74-.02.03-.03.07-.05.1-.27.6-.53,1.21-.76,1.84-.03.09-.07.2-.1.29,0,.03-.03.06-.03.09-.08.2-.16.41-.23.61-.03.08-.04.14-.06.22-.11.32-.2.66-.3.99,0,.04-.03.08-.03.12-.2.71-.37,1.43-.51,2.16,0,.03-.02.05-.02.08-.08.41-.14.82-.2,1.25-.06.41-.11.82-.14,1.25,0,.03-.02.07,0,.1-.04.38-.07.77-.08,1.16,0,.05,0,.1,0,.15-.03.42-.03.84-.03,1.26,0,.92.04,1.82.13,2.71.04.45.09.89.16,1.33.06.43.14.87.22,1.31,0,.03,0,.04,0,.06.15.76.33,1.51.53,2.24,3.11,11.06,12.86,19.33,24.65,20.26,0-.02.02-.03.03-.04,6.52-9.66,16.68-16.66,28.49-19.02.08-.02.18-.03.26-.05h.02c.04-.14.09-.27.13-.42.21-.65.4-1.33.54-2.01.08-.35.15-.69.22-1.04.14-.69.25-1.38.32-2.1.04-.35.08-.7.1-1.07.03-.32.04-.65.06-.98.02-.34.03-.69.03-1.04v-.14c0-.31,0-.6-.02-.91,0-.28-.02-.56-.03-.83,0-.05,0-.09,0-.14-.03-.31-.05-.6-.08-.9-.03-.28-.06-.55-.09-.82,0-.07,0-.13-.03-.19-.03-.28-.08-.55-.13-.83-.04-.29-.1-.59-.16-.87,0-.02,0-.03,0-.04-.18-.91-.41-1.8-.67-2.67h-.03c-.03-.15-.08-.3-.14-.44,0,0,0-.03,0-.03-3.43-10.52-12.92-18.28-24.33-19.18ZM215.5,257.67c-4.06,0-7.35-3.29-7.35-7.35s3.29-7.36,7.35-7.36,7.36,3.29,7.36,7.36-3.29,7.35-7.36,7.35Z"/>
        <path class="cls-1" d="M365.86,230.6c-6.42,10.31-16.92,17.85-29.23,20.33-.11.03-.22.04-.33.06-.65,2.37-1,4.86-1,7.43,0,3,.47,5.87,1.34,8.58h0c.03.09.06.18.08.26,3.7,11.1,14.18,19.11,26.53,19.11.6,0,1.21-.02,1.8-.06,14.6-.93,26.15-13.06,26.15-27.9s-11.13-26.51-25.34-27.83Z"/>
        <path class="cls-1" d="M354.24,302.45c-10.52-2.16-19.72-7.99-26.17-16.11-6.52,8.46-15.98,14.56-26.84,16.72-.08.02-.16.03-.24.04-.8,2.59-1.22,5.34-1.22,8.19s.46,5.77,1.3,8.44c.04,0,.08,0,.12.03,0,.08-.02.14-.04.21h0c3.66,11.2,14.17,19.28,26.58,19.28.7,0,1.4-.03,2.09-.08,14.46-1.07,25.86-13.15,25.86-27.88,0-3.09-.5-6.07-1.43-8.84h0Z"/>
        <path class="cls-1" d="M292.4,339.03c-6.56,8.34-16.01,14.32-26.84,16.39-.82,2.64-1.27,5.46-1.27,8.37,0,15.44,12.52,27.96,27.96,27.96s27.96-12.52,27.96-27.96c0-2.94-.45-5.77-1.3-8.44-10.69-2.13-20-8.07-26.51-16.32Z"/>
      </g>
    </g>
  </g>
</svg>